<svg width="152" height="83" viewBox="0 0 152 83" fill="none" xmlns="http://www.w3.org/2000/svg">
<g clip-path="url(#clip0_190_75)">
<path d="M36.3636 82V66.0909C36.3636 65.4517 36.1447 64.9131 35.7067 64.4751C35.2687 64.0372 34.7301 63.8182 34.0909 63.8182H2.27274C1.65721 63.8182 1.12454 64.0372 0.674727 64.4751C0.224917 64.9131 1.14441e-05 65.4517 1.14441e-05 66.0909V82H36.3636ZM13.6364 61.5455V59.2727C13.6364 58.6572 13.4174 58.1245 12.9794 57.6747C12.5414 57.2249 12.0029 57 11.3636 57H6.81819C6.20266 57 5.66999 57.2249 5.22018 57.6747C4.77037 58.1245 4.54547 58.6572 4.54547 59.2727V61.5455H13.6364ZM31.8182 61.5455V59.2727C31.8182 58.6572 31.5992 58.1245 31.1612 57.6747C30.7233 57.2249 30.1847 57 29.5455 57H25C24.3608 57 23.8222 57.2249 23.3842 57.6747C22.9463 58.1245 22.7273 58.6572 22.7273 59.2727V61.5455H31.8182Z" fill="#8C0327"/>
</g>
<g clip-path="url(#clip1_190_75)">
<path d="M136.885 82.2631L145.949 69.1884C146.313 68.663 146.44 68.0956 146.329 67.4862C146.219 66.8767 145.901 66.3899 145.376 66.0257L119.226 47.8983C118.721 47.5476 118.158 47.4241 117.539 47.5278C116.92 47.6314 116.428 47.9459 116.064 48.4713L107 61.546L136.885 82.2631ZM129.86 52.5045L131.155 50.6367C131.506 50.1309 131.629 49.5683 131.526 48.9491C131.422 48.3299 131.107 47.8383 130.582 47.4741L126.846 44.8845C126.341 44.5338 125.775 44.4151 125.149 44.5285C124.523 44.642 124.035 44.9516 123.684 45.4575L122.389 47.3253L129.86 52.5045ZM144.803 62.8631L146.098 60.9953C146.448 60.4894 146.572 59.9269 146.468 59.3077C146.364 58.6885 146.05 58.1968 145.525 57.8326L141.789 55.243C141.264 54.8788 140.693 54.7568 140.077 54.877C139.46 54.9971 138.977 55.3101 138.626 55.816L137.332 57.6838L144.803 62.8631Z" fill="#4590BF"/>
</g>
<g clip-path="url(#clip2_190_75)">
<path d="M73.3636 82V66.0909C73.3636 65.4517 73.1447 64.9131 72.7067 64.4751C72.2687 64.0372 71.7301 63.8182 71.0909 63.8182H39.2727C38.6572 63.8182 38.1245 64.0372 37.6747 64.4751C37.2249 64.9131 37 65.4517 37 66.0909V82H73.3636ZM50.6364 61.5455V59.2727C50.6364 58.6572 50.4174 58.1245 49.9794 57.6747C49.5414 57.2249 49.0029 57 48.3636 57H43.8182C43.2027 57 42.67 57.2249 42.2202 57.6747C41.7704 58.1245 41.5455 58.6572 41.5455 59.2727V61.5455H50.6364ZM68.8182 61.5455V59.2727C68.8182 58.6572 68.5992 58.1245 68.1612 57.6747C67.7233 57.2249 67.1847 57 66.5455 57H62C61.3608 57 60.8222 57.2249 60.3842 57.6747C59.9463 58.1245 59.7273 58.6572 59.7273 59.2727V61.5455H68.8182Z" fill="#0367A6"/>
</g>
<g clip-path="url(#clip3_190_75)">
<path d="M54.3636 63V47.0909C54.3636 46.4517 54.1447 45.9131 53.7067 45.4751C53.2687 45.0372 52.7301 44.8182 52.0909 44.8182H20.2727C19.6572 44.8182 19.1245 45.0372 18.6747 45.4751C18.2249 45.9131 18 46.4517 18 47.0909V63H54.3636ZM31.6364 42.5455V40.2727C31.6364 39.6572 31.4174 39.1245 30.9794 38.6747C30.5414 38.2249 30.0029 38 29.3636 38H24.8182C24.2027 38 23.67 38.2249 23.2202 38.6747C22.7704 39.1245 22.5455 39.6572 22.5455 40.2727V42.5455H31.6364ZM49.8182 42.5455V40.2727C49.8182 39.6572 49.5992 39.1245 49.1612 38.6747C48.7233 38.2249 48.1847 38 47.5455 38H43C42.3608 38 41.8222 38.2249 41.3842 38.6747C40.9463 39.1245 40.7273 39.6572 40.7273 40.2727V42.5455H49.8182Z" fill="#04BF45"/>
</g>
<g clip-path="url(#clip4_190_75)">
<path d="M110.364 82V66.0909C110.364 65.4517 110.145 64.9131 109.707 64.4751C109.269 64.0372 108.73 63.8182 108.091 63.8182H76.2727C75.6572 63.8182 75.1245 64.0372 74.6747 64.4751C74.2249 64.9131 74 65.4517 74 66.0909V82H110.364ZM87.6364 61.5455V59.2727C87.6364 58.6572 87.4174 58.1245 86.9794 57.6747C86.5414 57.2249 86.0029 57 85.3636 57H80.8182C80.2027 57 79.67 57.2249 79.2202 57.6747C78.7704 58.1245 78.5455 58.6572 78.5455 59.2727V61.5455H87.6364ZM105.818 61.5455V59.2727C105.818 58.6572 105.599 58.1245 105.161 57.6747C104.723 57.2249 104.185 57 103.545 57H99C98.3608 57 97.8222 57.2249 97.3842 57.6747C96.9463 58.1245 96.7273 58.6572 96.7273 59.2727V61.5455H105.818Z" fill="#078C03"/>
</g>
<g clip-path="url(#clip5_190_75)">
<path d="M91.3636 63V47.0909C91.3636 46.4517 91.1447 45.9131 90.7067 45.4751C90.2687 45.0372 89.7301 44.8182 89.0909 44.8182H57.2727C56.6572 44.8182 56.1245 45.0372 55.6747 45.4751C55.2249 45.9131 55 46.4517 55 47.0909V63H91.3636ZM68.6364 42.5455V40.2727C68.6364 39.6572 68.4174 39.1245 67.9794 38.6747C67.5414 38.2249 67.0029 38 66.3636 38H61.8182C61.2027 38 60.67 38.2249 60.2202 38.6747C59.7704 39.1245 59.5455 39.6572 59.5455 40.2727V42.5455H68.6364ZM86.8182 42.5455V40.2727C86.8182 39.6572 86.5992 39.1245 86.1612 38.6747C85.7233 38.2249 85.1847 38 84.5455 38H80C79.3608 38 78.8222 38.2249 78.3842 38.6747C77.9463 39.1245 77.7273 39.6572 77.7273 40.2727V42.5455H86.8182Z" fill="#4590BF"/>
</g>
<g clip-path="url(#clip6_190_75)">
<path d="M73.3636 44V28.0909C73.3636 27.4517 73.1447 26.9131 72.7067 26.4751C72.2687 26.0372 71.7301 25.8182 71.0909 25.8182H39.2727C38.6572 25.8182 38.1245 26.0372 37.6747 26.4751C37.2249 26.9131 37 27.4517 37 28.0909V44H73.3636ZM50.6364 23.5455V21.2727C50.6364 20.6572 50.4174 20.1245 49.9794 19.6747C49.5414 19.2249 49.0029 19 48.3636 19H43.8182C43.2027 19 42.67 19.2249 42.2202 19.6747C41.7704 20.1245 41.5455 20.6572 41.5455 21.2727V23.5455H50.6364ZM68.8182 23.5455V21.2727C68.8182 20.6572 68.5992 20.1245 68.1612 19.6747C67.7233 19.2249 67.1847 19 66.5455 19H62C61.3608 19 60.8222 19.2249 60.3842 19.6747C59.9463 20.1245 59.7273 20.6572 59.7273 21.2727V23.5455H68.8182Z" fill="#8C0327"/>
</g>
<g clip-path="url(#clip7_190_75)">
<path d="M55.3636 25V9.09091C55.3636 8.4517 55.1447 7.91312 54.7067 7.47514C54.2687 7.03717 53.7301 6.81818 53.0909 6.81818H21.2727C20.6572 6.81818 20.1245 7.03717 19.6747 7.47514C19.2249 7.91312 19 8.4517 19 9.09091V25H55.3636ZM32.6364 4.54545V2.27273C32.6364 1.6572 32.4174 1.12453 31.9794 0.674716C31.5414 0.224905 31.0029 0 30.3636 0H25.8182C25.2027 0 24.67 0.224905 24.2202 0.674716C23.7704 1.12453 23.5455 1.6572 23.5455 2.27273V4.54545H32.6364ZM50.8182 4.54545V2.27273C50.8182 1.6572 50.5992 1.12453 50.1612 0.674716C49.7233 0.224905 49.1847 0 48.5455 0H44C43.3608 0 42.8222 0.224905 42.3842 0.674716C41.9463 1.12453 41.7273 1.6572 41.7273 2.27273V4.54545H50.8182Z" fill="#F21905"/>
</g>
<defs>
<clipPath id="clip0_190_75">
<rect width="36.3636" height="25" fill="white" transform="translate(0 57)"/>
</clipPath>
<clipPath id="clip1_190_75">
<rect width="36.3636" height="25" fill="white" transform="translate(121.243 41) rotate(34.7307)"/>
</clipPath>
<clipPath id="clip2_190_75">
<rect width="36.3636" height="25" fill="white" transform="translate(37 57)"/>
</clipPath>
<clipPath id="clip3_190_75">
<rect width="36.3636" height="25" fill="white" transform="translate(18 38)"/>
</clipPath>
<clipPath id="clip4_190_75">
<rect width="36.3636" height="25" fill="white" transform="translate(74 57)"/>
</clipPath>
<clipPath id="clip5_190_75">
<rect width="36.3636" height="25" fill="white" transform="translate(55 38)"/>
</clipPath>
<clipPath id="clip6_190_75">
<rect width="36.3636" height="25" fill="white" transform="translate(37 19)"/>
</clipPath>
<clipPath id="clip7_190_75">
<rect width="36.3636" height="25" fill="white" transform="translate(19)"/>
</clipPath>
</defs>
</svg>
