<svg width="50" height="60" viewBox="0 0 50 60" fill="none" xmlns="http://www.w3.org/2000/svg">
<g clip-path="url(#clip0_44_813)">
<path d="M39.8148 51.8519V54.2824C39.8148 55.6713 39.3326 56.848 38.368 57.8125C37.4035 58.777 36.2268 59.2593 34.838 59.2593H15.162C13.7731 59.2593 12.5964 58.777 11.6319 57.8125C10.6674 56.848 10.1852 55.6713 10.1852 54.2824V51.8519C8.02468 51.8519 5.8449 50.8681 3.64582 48.9005C1.44675 46.9329 0.347214 44.6373 0.347214 42.0139V19.7917C0.347214 17.1682 1.44675 14.8534 3.64582 12.8472C5.8449 10.841 8.02468 9.83796 10.1852 9.83796H12.6157V7.40741C12.6157 5.32407 13.3295 3.56867 14.7569 2.1412C16.1844 0.713735 17.9398 0 20.0231 0H29.9768C32.0602 0 33.8156 0.713735 35.243 2.1412C36.6705 3.56867 37.3843 5.32407 37.3843 7.40741V9.83796H39.8148C42.5154 9.83796 44.8302 10.8218 46.7593 12.7894C48.6883 14.7569 49.6528 17.091 49.6528 19.7917V42.0139C49.6528 44.7145 48.6883 47.0293 46.7593 48.9583C44.8302 50.8873 42.5154 51.8519 39.8148 51.8519ZM15.162 54.2824H34.838V51.8519H15.162V54.2824ZM32.4074 7.40741C32.4074 5.78704 31.5972 4.97685 29.9768 4.97685H20.0231C18.4028 4.97685 17.5926 5.78704 17.5926 7.40741V9.83796H32.4074V7.40741ZM44.7917 19.7917C44.7917 18.4028 44.2901 17.2261 43.287 16.2616C42.2839 15.2971 41.1265 14.8148 39.8148 14.8148H10.1852C9.25925 14.8148 8.19829 15.3356 7.00231 16.3773C5.80632 17.419 5.20832 18.5571 5.20832 19.7917V42.0139C5.20832 43.2485 5.80632 44.3673 7.00231 45.3704C8.19829 46.3735 9.25925 46.875 10.1852 46.875H39.8148C41.1265 46.875 42.2839 46.3927 43.287 45.4282C44.2901 44.4637 44.7917 43.3256 44.7917 42.0139V19.7917ZM29.9768 25.9259C29.9768 27.0062 30.3434 27.8935 31.0764 28.588C31.8094 29.2824 32.6775 29.6296 33.6805 29.6296C34.6836 29.6296 35.5517 29.2631 36.2847 28.5301C37.0177 27.7971 37.3843 26.929 37.3843 25.9259C37.3843 24.9228 37.0177 24.0548 36.2847 23.3218C35.5517 22.5887 34.6836 22.2222 33.6805 22.2222C32.6775 22.2222 31.8094 22.5694 31.0764 23.2639C30.3434 23.9583 29.9768 24.8457 29.9768 25.9259ZM12.6157 25.9259C12.6157 26.929 12.9822 27.7971 13.7153 28.5301C14.4483 29.2631 15.3163 29.6296 16.3194 29.6296C17.3225 29.6296 18.1906 29.2824 18.9236 28.588C19.6566 27.8935 20.0231 27.0062 20.0231 25.9259C20.0231 24.8457 19.6566 23.9583 18.9236 23.2639C18.1906 22.5694 17.3225 22.2222 16.3194 22.2222C15.3163 22.2222 14.4483 22.5887 13.7153 23.3218C12.9822 24.0548 12.6157 24.9228 12.6157 25.9259ZM25 42.0139C21.6049 42.0139 18.7114 41.4931 16.3194 40.4514C13.9275 39.4097 12.3843 38.4645 11.6898 37.6157C10.9954 36.767 10.571 36.0725 10.4167 35.5324C9.79937 34.0664 10.2238 32.9861 11.6898 32.2917C13.1559 31.6744 14.2361 32.0988 14.9305 33.5648C14.9305 33.7963 15.162 34.1435 15.625 34.6065C16.088 35.0694 17.1682 35.5903 18.8657 36.169C20.5633 36.7477 22.608 37.037 25 37.037C27.392 37.037 29.4367 36.7477 31.1343 36.169C32.8318 35.5903 33.912 35.0309 34.375 34.4907L35.0694 33.5648C35.7639 32.0988 36.8441 31.6744 38.3102 32.2917C39.7762 32.9861 40.2006 34.0664 39.5833 35.5324C39.429 36.0725 39.0046 36.767 38.3102 37.6157C37.6157 38.4645 36.0725 39.4097 33.6805 40.4514C31.2886 41.4931 28.3951 42.0139 25 42.0139Z" fill="#8C0327"/>
</g>
<defs>
<clipPath id="clip0_44_813">
<rect width="50" height="59.2593" fill="white"/>
</clipPath>
</defs>
</svg>
